<svg width="64" height="64" viewBox="0 0 64 64" fill="none" xmlns="http://www.w3.org/2000/svg">
<path d="M43.4553 48.9752H14.0194V36.5215C14.0194 34.0205 16.047 31.9929 18.548 31.9929H38.9267C41.4277 31.9929 43.4553 34.0205 43.4553 36.5215V48.9752Z" fill="#1C2E7A"/>
<path d="M48.3862 40.9014C45.7355 38.5609 34.3942 36.6633 34.1017 36.6147H23.3721C23.0795 36.6632 11.7382 38.5609 9.08752 40.9014C8.14206 41.7361 8.10017 44.2229 7.05621 47.0944C12.0698 54.2707 19.3184 58.9662 28.7369 58.9662C38.1553 58.9662 46.4737 54.2708 51.4873 47.0944C50.4433 44.2229 49.3317 41.7361 48.3862 40.9014Z" fill="#9BD8F9"/>
<path d="M16.1538 38.1372C13.2381 38.8832 10.282 39.8472 9.08841 40.9011C8.14295 41.7359 9.00678 44.3202 7.96283 47.1917C12.9764 54.3682 19.3193 58.966 28.7378 58.966C17.1309 52.3203 16.1787 38.5305 16.1538 38.1372Z" fill="#73C3F9"/>
<path d="M10.0641 49.3249V51.7394C10.8744 52.4774 11.7288 53.1678 12.6226 53.8069L11.2601 49.1535C11.062 48.4764 10.0641 48.6195 10.0641 49.3249Z" fill="#4FABF7"/>
<path d="M47.4095 49.3249V51.7394C46.5992 52.4774 45.7448 53.1678 44.8509 53.8069L46.2135 49.1535C46.4116 48.4764 47.4095 48.6195 47.4095 49.3249Z" fill="#73C3F9"/>
<path d="M35.789 36.9193C34.8092 36.7329 34.1682 36.6257 34.1015 36.6147H23.3719C23.3055 36.6257 22.6673 36.7325 21.6915 36.918C21.9174 37.2194 24.536 40.5878 28.7123 40.5878C32.9311 40.5878 35.6069 37.1592 35.789 36.9193Z" fill="#73C3F9"/>
<path d="M34.1024 25.99H23.3728V36.6142C23.3728 36.6142 25.5263 38.889 28.7132 38.889C31.9 38.889 34.1024 36.6142 34.1024 36.6142V25.99Z" fill="#FCAD6D"/>
<path d="M23.3728 25.99V36.6142C34.0969 36.6142 34.1024 30.5685 34.1024 30.5685V25.9901H23.3728V25.99Z" fill="#FD995B"/>
<path d="M37.236 19.0652C37.236 19.0652 38.4118 16.2026 40.5076 16.8672C42.6034 17.5317 40.4569 23.7352 36.367 24.1261L37.236 19.0652Z" fill="#FCAD6D"/>
<path d="M20.2398 19.0655C20.2398 19.0655 19.0641 16.2028 16.9682 16.8674C14.8724 17.532 17.019 23.7355 21.1088 24.1263L20.2398 19.0655Z" fill="#FD995B"/>
<path d="M38.6546 17.6148C38.6546 24.9177 34.2144 33.4824 28.7373 33.4824C23.2602 33.4824 18.82 24.9176 18.82 17.6148C18.82 10.3119 23.2601 5.06104 28.7373 5.06104C34.2145 5.06104 38.6546 10.3119 38.6546 17.6148Z" fill="#F9BA8F"/>
<path d="M27.1538 22.7877L28.1089 21.266C28.3997 20.8026 29.075 20.8026 29.3658 21.266L30.3209 22.7877C30.631 23.2819 30.2758 23.9242 29.6924 23.9242H27.7824C27.1989 23.9241 26.8437 23.2818 27.1538 22.7877Z" fill="#FD995B"/>
<path d="M26.4025 28.2701H31.0707C31.5361 27.86 31.8924 27.3294 32.0907 26.7269C32.2701 26.1822 31.8565 25.6226 31.2831 25.6226H26.1901C25.6166 25.6226 25.2031 26.1822 25.3824 26.7269C25.5808 27.3294 25.937 27.86 26.4025 28.2701Z" fill="#142766"/>
<path d="M31.0704 28.2701C30.4485 28.819 29.631 29.1529 28.7364 29.1529C27.8418 29.1529 27.0241 28.8191 26.4023 28.2701C27.025 27.7211 27.8418 27.3872 28.7364 27.3872C29.631 27.3872 30.4477 27.7211 31.0704 28.2701Z" fill="#FF4155"/>
<path d="M34.9632 19.3506C34.968 18.955 34.808 18.5577 34.4829 18.2707C33.9536 17.8033 33.1425 17.8033 32.6132 18.2707C32.2881 18.5577 32.1282 18.955 32.1329 19.3506C32.1391 19.8644 32.7702 20.111 33.1335 19.7477C33.3624 19.5188 33.7335 19.5188 33.9625 19.7477C34.3259 20.1111 34.9569 19.8645 34.9632 19.3506Z" fill="#142766"/>
<path d="M22.5096 19.3506C22.5047 18.955 22.6648 18.5577 22.9898 18.2707C23.5191 17.8033 24.3303 17.8033 24.8596 18.2707C25.1846 18.5577 25.3446 18.955 25.3398 19.3506C25.3336 19.8644 24.7025 20.111 24.3392 19.7477C24.1103 19.5188 23.7392 19.5188 23.5103 19.7477C23.1469 20.1111 22.5158 19.8645 22.5096 19.3506Z" fill="#142766"/>
<path d="M25.0571 15.8037H22.7928C22.3239 15.8037 21.9437 15.4235 21.9437 14.9546C21.9437 14.4856 22.3239 14.1055 22.7928 14.1055H25.0571C25.5261 14.1055 25.9062 14.4856 25.9062 14.9546C25.9062 15.4236 25.5261 15.8037 25.0571 15.8037Z" fill="#142766"/>
<path d="M34.6805 15.8037H32.4162C31.9473 15.8037 31.5671 15.4235 31.5671 14.9546C31.5671 14.4856 31.9473 14.1055 32.4162 14.1055H34.6805C35.1494 14.1055 35.5296 14.4856 35.5296 14.9546C35.5296 15.4236 35.1494 15.8037 34.6805 15.8037Z" fill="#142766"/>
<path d="M28.7373 1C16.2242 1 16.6778 10.0019 16.7852 15.729C16.7967 16.3457 17.3003 16.8392 17.9171 16.8392H39.5575C40.1742 16.8392 40.6778 16.3457 40.6894 15.729C40.7967 10.0019 41.2504 1 28.7373 1Z" fill="#E80054"/>
<path opacity="0.5" d="M23.9561 11.706C21.4542 10.5595 18.6053 3.96606 21.9333 2.31177C16.4174 5.0184 16.7029 11.3366 16.7851 15.729C16.7966 16.3457 17.3002 16.8392 17.917 16.8392H23.9561V11.706Z" fill="#CC0053"/>
<path d="M28.7373 1C23.3871 1 23.955 11.2569 23.955 16.8392H33.5196C33.5196 11.2569 34.0875 1 28.7373 1Z" fill="#CC0053" fill-opacity="0.5"/>
<path d="M39.3921 16.8394C39.3921 16.8394 36.8909 10.9028 28.7371 10.9028C20.5832 10.9028 18.0821 16.8394 18.0821 16.8394C18.0821 16.8394 18.8754 18.7556 21.1743 18.7556C23.4733 18.7556 23.6945 17.0935 28.7372 17.0935C33.7799 17.0935 34.0011 18.7556 36.3001 18.7556C38.5988 18.7556 39.3921 16.8394 39.3921 16.8394Z" fill="#FF4155"/>
<path d="M18.0821 16.839C18.0821 16.839 18.8754 18.7553 21.1743 18.7553C22.3351 18.7553 22.9664 18.3315 23.956 17.9119C21.6827 13.9518 23.9561 11.7058 23.9561 11.7058C19.5624 13.3272 18.0821 16.839 18.0821 16.839Z" fill="#E80054"/>
<path d="M14.2753 51.9063C14.2536 51.893 14.2318 51.8796 14.2101 51.8662C13.2176 51.2545 12.6237 50.1624 12.6237 48.9966V53.8048C14.694 55.2858 16.9764 56.4888 19.4166 57.3598V49.0055C19.4166 51.6441 16.5253 53.2846 14.2753 51.9063Z" fill="#2A428C"/>
<path d="M39.7097 51.9061C39.688 51.8927 39.6663 51.8794 39.6445 51.866C38.6522 51.2544 38.0582 50.1622 38.0582 48.9966V57.3597C40.4984 56.4887 42.7808 55.2857 44.8511 53.8047V49.0054C44.8509 51.6439 41.9598 53.2844 39.7097 51.9061Z" fill="#2A428C"/>
<path d="M16.0187 44.55C16.0187 43.6122 16.7791 42.8518 17.717 42.8518H12.6223C12.3097 42.8518 12.0562 43.1053 12.0562 43.4179V45.6822C12.0562 45.9948 12.3097 46.2483 12.6223 46.2483H17.717C16.779 46.2483 16.0187 45.4879 16.0187 44.55Z" fill="#1C2E7A"/>
<path d="M44.8514 46.2483H38.0585C37.7459 46.2483 37.4924 45.9948 37.4924 45.6822V43.4179C37.4924 43.1053 37.7459 42.8518 38.0585 42.8518H44.8514C45.164 42.8518 45.4174 43.1053 45.4174 43.4179V45.6822C45.4174 45.9948 45.1641 46.2483 44.8514 46.2483Z" fill="#2A428C"/>
<path d="M15.6011 39.7197L10.4061 41.6087L10.0823 41.7648C8.41519 38.4178 7 45.9683 7 47.4179V57.0132L7.81912 58.7425H11.8116H12.1425L13.0556 58.2445L13.8719 58.7425H17.812H25.1127V49.9571L15.6011 39.7197Z" fill="#73C3F9"/>
<path d="M41.1731 38.1343L47.1494 40.3074C49.7358 41.2479 51.4575 43.7059 51.4575 46.458V56.833C51.4575 57.8657 50.6202 58.7028 49.5876 58.7028H44.913L43.9351 57.9669L43.0431 58.7028H30.8888V49.2035L41.1731 38.1343Z" fill="#9BD8F9"/>
<path d="M44.8512 58.2867C42.7809 59.7677 40.4984 57.6988 38.0582 58.5697V37.6543C38.0582 36.9263 38.7347 36.3882 39.4443 36.5509C40.9504 36.8963 42.5802 37.3122 44.0573 37.7789C44.5294 37.9282 44.8512 38.3646 44.8512 38.8597V53.8048V58.2867Z" fill="#3C58A0"/>
<path d="M41.4549 44.55C41.4549 43.6122 42.2153 42.8518 43.1531 42.8518H38.0585C37.7459 42.8518 37.4924 43.1053 37.4924 43.4179V45.6822C37.4924 45.9948 37.7459 46.2483 38.0585 46.2483H43.1531C42.2153 46.2483 41.4549 45.4879 41.4549 44.55Z" fill="#1C2E7A"/>
<path d="M40.8248 62.4859C33.8153 60.6256 29.641 53.435 31.5013 46.4255C33.0014 40.7736 37.9667 36.9651 43.5084 36.6769C44.8396 36.6077 56.4908 38.7447 56.4908 49.3925C56.4908 57.1947 49.3736 63.3788 43.1718 62.8878C42.3923 62.8261 41.6074 62.6936 40.8248 62.4859Z" fill="#26A6FE"/>
<path d="M44.1932 36.6626C43.8495 36.6626 43.5089 36.6759 43.1718 36.7019C49.9467 37.2231 55.2817 42.8854 55.2817 49.794C55.2817 56.7026 49.9467 62.3648 43.1718 62.8861C43.5089 62.912 43.8495 62.9254 44.1932 62.9254C51.4454 62.9254 57.3245 57.0463 57.3245 49.794C57.3245 42.5417 51.4455 36.6626 44.1932 36.6626Z" fill="#26A6FE"/>
<path d="M44.1938 60.0201C49.8415 60.0201 54.4199 55.4417 54.4199 49.794C54.4199 44.1463 49.8415 39.5679 44.1938 39.5679C38.5461 39.5679 33.9677 44.1463 33.9677 49.794C33.9677 55.4417 38.5461 60.0201 44.1938 60.0201Z" fill="#FFF3EF"/>
<path d="M45.5146 39.6536C44.7164 39.5495 43.9277 39.5409 43.1599 39.6183C43.2638 39.6286 43.3677 39.64 43.4718 39.6536C49.0722 40.3833 53.0206 45.515 52.2908 51.1154C51.665 55.9175 47.8028 59.5047 43.1837 59.9697C48.6615 60.5162 53.6174 56.6116 54.3336 51.1154C55.0634 45.515 51.115 40.3833 45.5146 39.6536Z" fill="#F1F0F0"/>
<path d="M44.1959 42.4905C43.9334 42.4905 43.7206 42.2777 43.7206 42.0152V40.7021C43.7206 40.4396 43.9334 40.2268 44.1959 40.2268C44.4584 40.2268 44.6712 40.4396 44.6712 40.7021V42.0152C44.6712 42.2777 44.4584 42.4905 44.1959 42.4905Z" fill="#B6C4CF"/>
<path d="M49.7361 44.7609C49.6144 44.7609 49.4928 44.7145 49.4 44.6217C49.2144 44.4361 49.2144 44.1352 49.4 43.9496L50.3286 43.0211C50.5141 42.8354 50.815 42.8355 51.0007 43.0211C51.1863 43.2067 51.1863 43.5076 51.0006 43.6932L50.0721 44.6217C49.9793 44.7145 49.8576 44.7609 49.7361 44.7609Z" fill="#B6C4CF"/>
<path d="M53.3617 50.2838H52.0486C51.7861 50.2838 51.5733 50.071 51.5733 49.8085C51.5733 49.546 51.7861 49.3333 52.0486 49.3333H53.3617C53.6242 49.3333 53.837 49.546 53.837 49.8085C53.837 50.071 53.6242 50.2838 53.3617 50.2838Z" fill="#B6C4CF"/>
<path d="M50.7055 56.7526C50.5839 56.7526 50.4622 56.7061 50.3694 56.6134L49.4409 55.6849C49.2553 55.4993 49.2553 55.1984 49.4409 55.0127C49.6266 54.8271 49.9274 54.8271 50.1131 55.0127L51.0416 55.9413C51.2272 56.1269 51.2272 56.4278 51.0416 56.6134C50.9488 56.7062 50.8271 56.7526 50.7055 56.7526Z" fill="#B6C4CF"/>
<path d="M44.2538 59.4495C43.9913 59.4495 43.7785 59.2367 43.7785 58.9742V57.6611C43.7785 57.3986 43.9913 57.1858 44.2538 57.1858C44.5163 57.1858 44.7291 57.3986 44.7291 57.6611V58.9742C44.7291 59.2367 44.5163 59.4495 44.2538 59.4495Z" fill="#B6C4CF"/>
<path d="M37.7848 56.7944C37.6632 56.7944 37.5415 56.748 37.4488 56.6551C37.2632 56.4695 37.2632 56.1686 37.4488 55.983L38.3773 55.0545C38.5629 54.8689 38.8638 54.8689 39.0494 55.0545C39.235 55.2401 39.235 55.541 39.0494 55.7266L38.1209 56.6551C38.0281 56.748 37.9064 56.7944 37.7848 56.7944Z" fill="#B6C4CF"/>
<path d="M36.402 50.3431H35.0889C34.8264 50.3431 34.6136 50.1304 34.6136 49.8679C34.6136 49.6054 34.8264 49.3926 35.0889 49.3926H36.402C36.6645 49.3926 36.8772 49.6054 36.8772 49.8679C36.8772 50.1304 36.6645 50.3431 36.402 50.3431Z" fill="#B6C4CF"/>
<path d="M38.6724 44.8026C38.5508 44.8026 38.4291 44.7563 38.3364 44.6635L37.4079 43.735C37.2222 43.5493 37.2222 43.2484 37.4079 43.0628C37.5935 42.8772 37.8944 42.8771 38.08 43.0628L39.0085 43.9913C39.1941 44.1769 39.1941 44.4778 39.0085 44.6635C38.9157 44.7563 38.794 44.8026 38.6724 44.8026Z" fill="#B6C4CF"/>
<path d="M44.1938 49.5645C43.9117 49.5645 43.6831 49.3359 43.6831 49.0539V45.6198C43.6831 45.3378 43.9117 45.1091 44.1938 45.1091C44.4759 45.1091 44.7045 45.3378 44.7045 45.6198V49.0539C44.7045 49.3359 44.4758 49.5645 44.1938 49.5645Z" fill="#678D98"/>
<path d="M48.4894 54.4824C48.3587 54.4824 48.228 54.4326 48.1283 54.3328L44.4104 50.6149C44.2109 50.4155 44.2109 50.0921 44.4104 49.8927C44.6099 49.6933 44.9332 49.6933 45.1327 49.8927L48.8505 53.6107C49.05 53.8101 49.05 54.1335 48.8505 54.3328C48.7508 54.4325 48.6201 54.4824 48.4894 54.4824Z" fill="#678D98"/>
<path d="M44.2612 50.7692C43.6953 50.7692 43.2349 50.3089 43.2349 49.743C43.2349 49.1772 43.6953 48.7168 44.2612 48.7168C44.827 48.7168 45.2874 49.1772 45.2874 49.743C45.2874 50.3089 44.827 50.7692 44.2612 50.7692Z" fill="#3E5959"/>
<path d="M17.3018 58.7397H11.6977L11.0184 57.4944L16.6225 57.834L17.3018 58.7397Z" fill="#73C3F9"/>
<path d="M12.6237 58.2301C14.6425 59.3056 16.9764 57.6988 19.4166 58.5697V37.6543C19.4166 36.9263 18.74 36.3882 18.0305 36.5509C16.5244 36.8963 14.8946 37.3122 13.4175 37.779C12.9454 37.9282 12.6237 38.3646 12.6237 38.8597V58.2301Z" fill="#3C58A0"/>
<path d="M19.4152 46.2483H12.6223C12.3097 46.2483 12.0562 45.9948 12.0562 45.6822V43.4179C12.0562 43.1053 12.3097 42.8518 12.6223 42.8518H19.4152C19.7278 42.8518 19.9813 43.1053 19.9813 43.4179V45.6822C19.9813 45.9948 19.7278 46.2483 19.4152 46.2483Z" fill="#2A428C"/>
<rect x="12.6033" y="57.834" width="6.7929" height="0.90572" fill="#3C58A0"/>
</svg>
