<svg width="64" height="64" viewBox="0 0 64 64" fill="none" xmlns="http://www.w3.org/2000/svg">
<path d="M28.057 44.3776C27.5164 45.3618 26.4491 46.041 25.2432 46.041C23.9541 46.041 22.8452 45.2925 22.3323 44.1974C22.0967 43.6984 21.57 43.3796 21.0155 43.3796H2.05345C1.47128 43.3796 1 42.9083 1 42.3262V12.6633C1 12.0811 1.47128 11.6099 2.05345 11.6099H4.22965V40.0391C4.22965 40.0391 4.90885 40.2331 6.40585 40.2054C6.64149 40.2054 6.89099 40.1916 7.15435 40.1777C8.73452 40.0807 11.0078 39.7341 14.0433 38.8193C18.6868 37.4193 22.166 39.1104 23.9402 40.3579C24.3145 40.6213 24.7719 41.0648 25.2293 41.0648H25.2847C25.7283 41.0648 26.158 40.649 26.5322 40.3856V40.8846C26.5184 42.243 27.0867 43.4905 28.057 44.3776Z" fill="#F87C68"/>
<path d="M6.39199 42.3125V40.2195C4.90885 40.2472 4.21579 40.0531 4.21579 40.0531V11.5962H2.05345C1.47128 11.5962 1 12.0675 1 12.6496V42.3125C1 42.8947 1.47128 43.366 2.05345 43.366H7.44544C6.86327 43.366 6.39199 42.8947 6.39199 42.3125Z" fill="#EC625E"/>
<path d="M45.9802 22.0194H37.8852C36.707 22.0194 35.5704 22.2412 34.5308 22.657C33.5744 23.0313 32.6873 23.5719 31.9249 24.2372C31.3289 24.7501 30.7883 25.3461 30.3448 26.0114C29.9428 26.5936 29.6101 27.2173 29.3468 27.8965C29.125 28.451 28.9725 29.0331 28.8616 29.643C28.7785 30.142 28.7369 30.6688 28.7369 31.1955V35.6311C28.7369 35.7142 28.7369 35.8113 28.7507 35.8944C28.7507 35.9499 28.7507 36.0053 28.7646 36.0608C28.529 36.1994 28.321 36.3657 28.1131 36.5459C27.1428 37.4053 26.5191 38.6667 26.5191 40.0666V40.7042C26.1448 40.9537 25.7151 41.0924 25.2716 41.0924H25.2439V41.0508L24.4954 40.0389V11.5958L25.2439 10.6117L25.2577 10.5978C25.2854 10.5562 25.4102 10.4453 25.6043 10.2651C25.632 10.2513 25.6458 10.2236 25.6736 10.2097C25.7706 10.1265 25.8676 10.0434 25.9924 9.93248C26.0201 9.90476 26.0478 9.8909 26.0894 9.86317C26.1864 9.79387 26.2973 9.7107 26.4082 9.62753C26.4498 9.59981 26.4775 9.57209 26.5191 9.54437C26.5607 9.51665 26.6023 9.48892 26.6438 9.4612C26.6854 9.43348 26.727 9.40576 26.7686 9.37803C26.9072 9.28101 27.0458 9.19784 27.1983 9.10081C27.2399 9.07309 27.2815 9.04537 27.323 9.03151C27.4201 8.97606 27.531 8.92062 27.628 8.85131C27.7805 8.76814 27.9468 8.67111 28.127 8.58795C30.0675 7.63153 32.9368 6.89689 36.4714 7.9642C39.1466 8.76814 41.2535 9.12853 42.8475 9.28101C42.3347 10.5701 42.0574 11.9839 42.0574 13.4255C42.0574 13.4532 42.0574 13.4671 42.0574 13.4948C42.0574 13.9938 42.099 14.4928 42.1683 14.9779C42.2515 15.5462 42.3763 16.1146 42.5287 16.6551C42.6812 17.1819 42.8753 17.6947 43.1109 18.1799C43.7762 19.663 44.7604 20.966 45.9802 22.0194Z" fill="#DBEDFF"/>
<path d="M46.2564 22.0195V22.2552C46.1594 22.1859 46.0762 22.1027 45.9792 22.0195H46.2564Z" fill="#DBEDFF"/>
<path d="M28.0981 8.57422V36.5044C27.1278 37.3638 26.504 38.6252 26.504 40.0252V40.6628C26.1298 40.9123 25.7001 41.0509 25.2565 41.0509H25.2288V41.0093L24.4803 39.9975V11.596L25.2288 10.6118L25.2427 10.5979C25.2704 10.5564 25.3951 10.4455 25.5892 10.2653C25.6169 10.2514 25.6308 10.2237 25.6585 10.2098C25.7555 10.1267 25.8526 10.0435 25.9773 9.93261C26.005 9.90489 26.0328 9.89103 26.0743 9.86331C26.1714 9.794 26.2823 9.71083 26.3931 9.62767C26.4347 9.59994 26.4624 9.57222 26.504 9.5445C26.5456 9.51678 26.5872 9.48906 26.6288 9.46133C26.6704 9.43361 26.7119 9.40589 26.7535 9.37817C26.8921 9.28114 27.0308 9.19797 27.1832 9.10094C27.2248 9.07322 27.2664 9.0455 27.308 9.03164C27.405 8.97619 27.5159 8.92075 27.6129 8.85144C27.7654 8.75441 27.9317 8.67125 28.0981 8.57422Z" fill="#B5DCFF"/>
<path d="M42.1531 14.9921C40.3512 14.7842 38.369 14.3545 36.2483 13.7169C33.7117 12.9545 31.2444 13.0654 28.9434 14.0634C28.6524 14.1882 28.3197 14.105 28.1118 13.8832C28.0563 13.8278 28.0147 13.7585 27.987 13.6753C27.8623 13.3981 27.9316 13.0931 28.1118 12.8991C28.1811 12.8298 28.2642 12.7605 28.3613 12.7189C30.9949 11.5823 33.781 11.4575 36.6641 12.3169C38.5908 12.8991 40.4066 13.301 42.0422 13.509C42.0422 14.008 42.0838 14.507 42.1531 14.9921Z" fill="#8BCAFF"/>
<path d="M43.0813 18.1941C41.0298 18.0416 38.7289 17.5704 36.2339 16.8219C33.6973 16.0595 31.23 16.1704 28.929 17.1684C28.6379 17.2931 28.3053 17.21 28.0974 16.9882C28.0419 16.9327 28.0003 16.8634 27.9726 16.7803C27.8479 16.5031 27.9172 16.1981 28.0974 16.0041C28.1667 15.9347 28.2498 15.8654 28.3469 15.8239C30.9805 14.6872 33.7666 14.5625 36.6497 15.4219C38.7704 16.0595 40.7387 16.4753 42.4991 16.6694C42.6654 17.1961 42.8595 17.6951 43.0813 18.1941Z" fill="#8BCAFF"/>
<path d="M28.7355 31.2095V32.7619C28.4999 32.7896 28.2642 32.7065 28.1118 32.5263C28.0563 32.4708 28.0147 32.4015 27.987 32.3184C27.8623 32.0411 27.9316 31.7362 28.1118 31.5421C28.1811 31.4728 28.2642 31.4035 28.3613 31.3619C28.486 31.3065 28.6108 31.2511 28.7355 31.2095Z" fill="#8BCAFF"/>
<path d="M28.735 35.8668C28.4993 35.8946 28.2498 35.8114 28.0974 35.6312C28.0419 35.5758 28.0003 35.5065 27.9726 35.4233C27.8479 35.1461 27.9172 34.8411 28.0974 34.6332C28.1667 34.5639 28.2498 34.4946 28.3469 34.453C28.4716 34.3976 28.5964 34.3421 28.7211 34.3005V35.5896C28.735 35.6867 28.735 35.7837 28.735 35.8668Z" fill="#8BCAFF"/>
<path d="M43.1519 21.2991C43.138 21.2991 43.1103 21.2991 43.0964 21.2991C41.045 21.1466 38.744 20.6753 36.249 19.9268C33.7124 19.1645 31.2451 19.2754 28.9442 20.2734C28.5699 20.4397 28.1402 20.2595 27.9878 19.8853C27.8214 19.511 28.0016 19.0813 28.3759 18.9288C31.0095 17.7922 33.7956 17.6675 36.6787 18.5269C39.0767 19.2476 41.2806 19.6912 43.2212 19.8437C43.6232 19.8714 43.9281 20.2318 43.9004 20.6338C43.8449 21.008 43.5261 21.2991 43.1519 21.2991Z" fill="#8BCAFF"/>
<path d="M31.923 24.2239C31.327 24.7367 30.7864 25.3328 30.3429 25.9981C29.8716 26.1229 29.4003 26.2892 28.929 26.4832C28.6379 26.608 28.3053 26.5248 28.0974 26.3031C28.0419 26.2476 28.0003 26.1783 27.9726 26.0951C27.8479 25.8179 27.9172 25.513 28.0974 25.3189C28.1667 25.2496 28.2498 25.1803 28.3469 25.1387C29.5112 24.6397 30.7033 24.3348 31.923 24.2239Z" fill="#8BCAFF"/>
<path d="M38.0219 22.0192H37.8833C36.7051 22.0192 35.5685 22.241 34.5289 22.6568C32.5884 22.3658 30.7171 22.6153 28.929 23.3776C28.6379 23.5024 28.3053 23.4192 28.0974 23.1974C28.0419 23.142 28.0003 23.0727 27.9726 22.9895C27.8479 22.7123 27.9172 22.4073 28.0974 22.2133C28.1667 22.144 28.2498 22.0747 28.3469 22.0331C30.9805 20.8965 33.7666 20.7717 36.6497 21.6311C37.121 21.7697 37.5645 21.9083 38.0219 22.0192Z" fill="#8BCAFF"/>
<path d="M29.3449 27.8694C29.1231 28.4238 28.9706 29.006 28.8597 29.6159C28.5825 29.6991 28.2914 29.6159 28.0974 29.408C28.0419 29.3525 28.0003 29.2832 27.9726 29.2001C27.8479 28.9228 27.9172 28.6179 28.0974 28.4238C28.1667 28.3545 28.2498 28.2852 28.3469 28.2436C28.6795 28.105 29.0122 27.9803 29.3449 27.8694Z" fill="#8BCAFF"/>
<path d="M4.88209 9.32267C6.28206 9.43356 9.28993 9.39198 14.0443 7.96428C20.9333 5.8851 25.258 10.6118 25.258 10.6118V41.0647H25.2303C24.7728 41.0647 24.3154 40.9122 23.9412 40.6489C22.167 39.4014 18.6878 37.7103 14.0443 39.1103C7.15532 41.1895 3.93953 40.3439 3.93953 40.3439V10.1959C3.93953 9.68306 4.36923 9.28109 4.88209 9.32267Z" fill="#DBEDFF"/>
<path d="M7.15532 9.30911C6.17118 9.37842 5.40881 9.35069 4.88209 9.30911C4.36923 9.26753 3.93953 9.6695 3.93953 10.1824V40.3304C3.93953 40.3304 4.97912 40.6076 7.15532 40.4551V9.30911Z" fill="#B5DCFF"/>
<path d="M7.33402 15.0751C6.95977 15.0751 6.64096 14.784 6.59938 14.3959C6.57165 13.9939 6.8766 13.6474 7.27857 13.6058C9.21913 13.4533 11.4231 13.0098 13.821 12.289C16.7042 11.4157 19.4902 11.5544 22.1239 12.691C22.4981 12.8573 22.6645 13.287 22.512 13.6474C22.3595 14.0078 21.9159 14.188 21.5556 14.0355C19.2546 13.0375 16.7873 12.9266 14.2507 13.689C11.7557 14.4375 9.45477 14.9088 7.40332 15.0612C7.3756 15.0751 7.34788 15.0751 7.33402 15.0751Z" fill="#8BCAFF"/>
<path d="M7.33402 18.194C6.95977 18.194 6.64096 17.9029 6.59938 17.5148C6.57165 17.1128 6.8766 16.7663 7.27857 16.7247C9.21913 16.5722 11.4231 16.1287 13.821 15.4079C16.7042 14.5346 19.4902 14.6733 22.1239 15.8099C22.4981 15.9762 22.6645 16.4059 22.512 16.7663C22.3456 17.1405 21.9159 17.3069 21.5556 17.1544C19.2546 16.1564 16.7873 16.0455 14.2507 16.8079C11.7557 17.5564 9.45477 18.0277 7.40332 18.1801C7.3756 18.194 7.34788 18.194 7.33402 18.194Z" fill="#8BCAFF"/>
<path d="M7.33402 33.7323C6.95977 33.7323 6.64096 33.4412 6.59938 33.0531C6.57165 32.6511 6.8766 32.3046 7.27857 32.263C9.21913 32.1106 11.4231 31.667 13.821 30.9462C16.7042 30.073 19.4902 30.2116 22.1239 31.3482C22.4981 31.5145 22.6645 31.9442 22.512 32.3046C22.3456 32.6789 21.9159 32.8452 21.5556 32.6927C19.2546 31.6947 16.7873 31.5838 14.2507 32.3462C11.7557 33.0947 9.45477 33.566 7.40332 33.7185C7.3756 33.7323 7.34788 33.7323 7.33402 33.7323Z" fill="#8BCAFF"/>
<path d="M7.33402 36.8512C6.95977 36.8512 6.64096 36.5601 6.59938 36.172C6.57165 35.77 6.8766 35.4235 7.27857 35.3819C9.21913 35.2295 11.4231 34.7859 13.821 34.0651C16.7042 33.1919 19.4902 33.3305 22.1239 34.4671C22.4981 34.6334 22.6645 35.0631 22.512 35.4235C22.3595 35.7839 21.9159 35.9641 21.5556 35.8116C19.2546 34.8136 16.7873 34.7027 14.2507 35.4651C11.7557 36.2136 9.45477 36.6849 7.40332 36.8374C7.3756 36.8512 7.34788 36.8512 7.33402 36.8512Z" fill="#8BCAFF"/>
<path d="M7.33402 21.2987C6.95977 21.2987 6.64096 21.0076 6.59938 20.6195C6.57165 20.2176 6.8766 19.871 7.27857 19.8294C9.21913 19.677 11.4231 19.2334 13.821 18.5126C16.7042 17.6394 19.4902 17.778 22.1239 18.9146C22.4981 19.0809 22.6645 19.5106 22.512 19.871C22.3456 20.2453 21.9159 20.4116 21.5556 20.2591C19.2546 19.2611 16.7873 19.1502 14.2507 19.9126C11.7557 20.6611 9.45477 21.1324 7.40332 21.2849C7.3756 21.2987 7.34788 21.2987 7.33402 21.2987Z" fill="#8BCAFF"/>
<path d="M7.33402 27.5224C6.95977 27.5224 6.64096 27.2313 6.59938 26.8432C6.57165 26.4412 6.8766 26.0947 7.27857 26.0531C9.21913 25.9006 11.4231 25.457 13.821 24.7363C16.7042 23.863 19.4902 24.0016 22.1239 25.1382C22.4981 25.3046 22.6645 25.7343 22.512 26.0947C22.3595 26.455 21.9159 26.6352 21.5556 26.4828C19.2546 25.4848 16.7873 25.3739 14.2507 26.1362C11.7557 26.8847 9.45477 27.356 7.40332 27.5085C7.3756 27.5224 7.34788 27.5224 7.33402 27.5224Z" fill="#8BCAFF"/>
<path d="M7.33402 24.4037C6.95977 24.4037 6.64096 24.1126 6.59938 23.7245C6.57165 23.3225 6.8766 22.976 7.27857 22.9344C9.21913 22.7819 11.4231 22.3384 13.821 21.6176C16.7042 20.7444 19.4902 20.883 22.1239 22.0196C22.4981 22.1859 22.6645 22.6156 22.512 22.976C22.3456 23.3503 21.9159 23.5166 21.5556 23.3641C19.2546 22.3661 16.7873 22.2552 14.2507 23.0176C11.7557 23.7661 9.45477 24.2374 7.40332 24.3898C7.3756 24.4037 7.34788 24.4037 7.33402 24.4037Z" fill="#8BCAFF"/>
<path d="M7.33402 30.6276C6.95977 30.6276 6.64096 30.3365 6.59938 29.9484C6.57165 29.5464 6.8766 29.1999 7.27857 29.1583C9.21913 29.0058 11.4231 28.5623 13.821 27.8415C16.7042 26.9682 19.4902 27.1068 22.1239 28.2435C22.4981 28.4098 22.6645 28.8395 22.512 29.1999C22.3456 29.5741 21.9159 29.7405 21.5556 29.588C19.2546 28.59 16.7873 28.4791 14.2507 29.2415C11.7557 29.99 9.45477 30.4612 7.40332 30.6137C7.3756 30.6276 7.34788 30.6276 7.33402 30.6276Z" fill="#8BCAFF"/>
<path d="M37.885 53.346V48.5361H46.7562V53.346L42.3206 57.7815L37.885 53.346Z" fill="#FCAD6D"/>
<path d="M53.4086 37.8216H51.1908V31.1682C51.1908 29.9484 50.1928 28.9504 48.9731 28.9504H35.6664C34.4466 28.9504 33.4486 29.9484 33.4486 31.1682V37.8216H31.2308C30.011 37.8216 29.013 38.8196 29.013 40.0394V40.8849C29.013 41.7304 29.4843 42.4928 30.2328 42.867L33.4486 44.4749V44.8492C33.4486 46.0274 33.9198 47.1501 34.7515 47.9818L36.595 49.8253C37.4267 50.657 38.5495 51.1283 39.7277 51.1283H44.9256C46.1038 51.1283 47.2266 50.657 48.0582 49.8253L49.9018 47.9818C50.7334 47.1501 51.2047 46.0274 51.2047 44.8492V44.4749L54.4205 42.867C55.169 42.4928 55.6403 41.7166 55.6403 40.8849V40.0394C55.6264 38.8196 54.6284 37.8216 53.4086 37.8216Z" fill="#F9BA8F"/>
<path d="M53.4095 40.0394C50.956 40.0394 48.9739 38.0572 48.9739 35.6038V28.9504H51.1917C52.4115 28.9504 53.4095 29.9484 53.4095 31.1682V40.0394Z" fill="#505050"/>
<path d="M46.7546 24.5149H37.8834C34.2102 24.5149 31.2301 27.495 31.2301 31.1682V35.6038C31.2301 36.8236 32.2281 37.8216 33.4479 37.8216H39.02C42.5546 37.8216 45.9368 36.4216 48.4318 33.9266L49.8872 32.4712C50.7189 31.6395 51.1901 30.5168 51.1901 29.3386V28.9505C51.1901 26.497 49.1941 24.5149 46.7546 24.5149Z" fill="#505050"/>
<path d="M40.1028 40.594H35.6672C35.3622 40.594 35.1127 40.3445 35.1127 40.0396C35.1127 39.7346 35.3622 39.4851 35.6672 39.4851H40.1028C40.4077 39.4851 40.6572 39.7346 40.6572 40.0396C40.6572 40.3445 40.4077 40.594 40.1028 40.594Z" fill="#505050"/>
<path d="M38.9939 42.2571C39.6063 42.2571 40.1028 41.7606 40.1028 41.1482C40.1028 40.5358 39.6063 40.0393 38.9939 40.0393C38.3815 40.0393 37.885 40.5358 37.885 41.1482C37.885 41.7606 38.3815 42.2571 38.9939 42.2571Z" fill="#505050"/>
<path d="M48.9728 40.594H44.5372C44.2322 40.594 43.9827 40.3445 43.9827 40.0396C43.9827 39.7346 44.2322 39.4851 44.5372 39.4851H48.9728C49.2777 39.4851 49.5272 39.7346 49.5272 40.0396C49.5272 40.3445 49.2777 40.594 48.9728 40.594Z" fill="#505050"/>
<path d="M45.6468 42.2571C46.2593 42.2571 46.7557 41.7606 46.7557 41.1482C46.7557 40.5358 46.2593 40.0393 45.6468 40.0393C45.0344 40.0393 44.5379 40.5358 44.5379 41.1482C44.5379 41.7606 45.0344 42.2571 45.6468 42.2571Z" fill="#505050"/>
<path d="M42.319 47.2475C41.6121 47.2475 40.9052 46.9703 40.3646 46.4436L39.7131 45.7921C39.4913 45.5703 39.4913 45.2238 39.7131 45.002C39.9349 44.7802 40.2814 44.7802 40.5032 45.002L41.1547 45.6535C41.8062 46.305 42.8596 46.305 43.5111 45.6535L44.1625 45.002C44.3843 44.7802 44.7309 44.7802 44.9526 45.002C45.1744 45.2238 45.1744 45.5703 44.9526 45.7921L44.3012 46.4436C43.7329 46.9703 43.0259 47.2475 42.319 47.2475Z" fill="#505050"/>
<path d="M55.6264 59.9995V58.7659C55.6264 57.9204 55.1551 57.158 54.4066 56.7838L46.7553 53.3462L42.3197 57.7818L37.8841 53.3462L30.2328 56.7838C29.4843 57.158 29.013 57.9204 29.013 58.7659V59.9995H55.6264Z" fill="#FA6450"/>
<path d="M33.4486 59.9995V58.7659C33.4486 57.9204 33.9198 57.158 34.6683 56.7838L39.2564 54.7184L37.8841 53.3462L30.2328 56.7838C29.4843 57.158 29.013 57.9204 29.013 58.7659V59.9995H33.4486Z" fill="#DC4632"/>
<path d="M37.885 53.3462V59.9995H46.7562V53.3462L42.3206 57.7818L37.885 53.3462Z" fill="#F0F0F0"/>
<path d="M42.3197 57.7817L40.1019 59.9995H44.5375L42.3197 57.7817Z" fill="#505050"/>
<path d="M46.2564 22.2552C46.1594 22.1859 46.0762 22.1027 45.9792 22.0195H46.2564V22.2552Z" fill="#F0F0F0"/>
<path d="M45.9792 22.0195H46.2564V22.2552C46.1594 22.172 46.0623 22.1027 45.9792 22.0195Z" fill="#F0F0F0"/>
<path d="M54.198 4C48.8643 4 44.5246 8.33971 44.5246 13.6734C44.5246 19.0071 48.8643 23.3468 54.198 23.3468C59.5318 23.3468 63.8715 19.0071 63.8715 13.6734C63.8715 8.33971 59.5318 4 54.198 4ZM59.6045 11.1278L53.4222 17.2616C53.0586 17.6252 52.4767 17.6495 52.0888 17.2858L48.8158 14.3038C48.4279 13.9401 48.4037 13.334 48.7431 12.9461C49.1068 12.5582 49.7129 12.5339 50.1008 12.8976L52.6949 15.2735L58.2226 9.74587C58.6105 9.35796 59.2166 9.35796 59.6045 9.74587C59.9924 10.1338 59.9924 10.7399 59.6045 11.1278Z" fill="#3CC8B4"/>
</svg>
