<svg width="64" height="64" viewBox="0 0 64 64" fill="none" xmlns="http://www.w3.org/2000/svg">
<path d="M21.4375 20.4375L19.5938 27.8125H12.2188L13.1406 30.5781L19.0553 31.8925C19.7618 32.0495 20.4989 31.9951 21.1747 31.7362C21.8506 31.4772 22.4352 31.0251 22.8559 30.4361L26.0469 25.9687V20.4375H21.4375Z" fill="#718799"/>
<path d="M44.4845 10.3418C44.4846 10.9072 44.2795 11.4535 43.9071 11.879L39.4879 16.9298C38.7089 17.8195 37.6331 18.3958 36.4608 18.5514C35.2885 18.707 34.0996 18.4313 33.1155 17.7756L32.6534 17.4679L31.5782 16.75L28.8126 20.4375H21.4376L24.2032 13.9844H20.5157L16.8282 17.6719V19.7853C16.8283 19.9143 16.7901 20.0404 16.7184 20.1477C16.6468 20.255 16.5449 20.3386 16.4257 20.3879C16.3066 20.4373 16.1754 20.4501 16.0489 20.4249C15.9224 20.3997 15.8062 20.3375 15.7151 20.2462L14.9845 19.5156L13.1407 21.3594L11.335 18.951C11.0685 18.5961 10.9391 18.157 10.9704 17.7144C11.0017 17.2717 11.1918 16.8552 11.5055 16.5414L17.5922 10.4547C18.2836 9.76347 19.2212 9.37509 20.1988 9.375H30.4259L36.1876 13.9844L38.9532 11.2188V9.10535C38.9531 8.97635 38.9913 8.85023 39.063 8.74295C39.1346 8.63568 39.2365 8.55207 39.3557 8.50272C39.4749 8.45337 39.606 8.44049 39.7325 8.46571C39.859 8.49093 39.9752 8.55313 40.0664 8.64441L40.797 9.375L42.6407 7.53125L43.8011 8.69166C44.0178 8.90834 44.1897 9.1656 44.307 9.44874C44.4242 9.73189 44.4845 10.0354 44.4845 10.3418Z" fill="#FFCEB6"/>
<path d="M35.6113 13.5234L32.6533 17.4679L31.5781 16.75L28.8125 20.4375H21.4375L24.2031 13.9844H22.3594V9.375H30.4258L35.6113 13.5234Z" fill="#FFA100"/>
<path d="M30.6562 37.0312L34.6659 29.8139C35.0592 29.1059 35.2656 28.3094 35.2656 27.4994C35.2656 26.7408 35.0845 25.9932 34.7374 25.3187C34.3903 24.6442 33.8872 24.0623 33.2699 23.6214L28.8125 20.4375H21.4375C21.4375 21.5351 21.7558 22.6091 22.3539 23.5294C22.952 24.4498 23.8042 25.1769 24.8072 25.6226L29.7344 27.8125L26.9688 37.9531L30.6562 37.0312Z" fill="#8098AB"/>
<path d="M13.1406 30.5781L11.2969 35.1875H9.45312V27.8125H12.2188L13.1406 30.5781Z" fill="#D1E4FF"/>
<path d="M26.9688 37.9531L30.6562 37.0312L35.2656 39.7969V40.7188H26.9688V37.9531Z" fill="#D1E4FF"/>
<path d="M27.8906 40.7188H35.2656V58.2344H27.8906V40.7188Z" fill="#4551F7"/>
<path d="M35.2656 35.1875H42.6406V58.2344H35.2656V35.1875Z" fill="#4F5DFF"/>
<path d="M42.6406 28.7344H50.0156V58.2344H42.6406V28.7344Z" fill="#5C6CFF"/>
<path d="M50.0156 24.125H57.3906V58.2344H50.0156V24.125Z" fill="#697DFF"/>
<path d="M20.5156 45.3281H27.8906V58.2344H20.5156V45.3281Z" fill="#3942ED"/>
<path d="M13.1406 49.0156H20.5156V58.2344H13.1406V49.0156Z" fill="#2D30E0"/>
<path d="M5.76562 52.7031H13.1406V58.2344H5.76562V52.7031Z" fill="#232CD1"/>
<path d="M50.9375 20.4375H56.4688V24.125H50.9375V20.4375Z" fill="#D1E4FF"/>
<path d="M52.7812 4.76562H54.625V20.4375H52.7812V4.76562Z" fill="#BED3F7"/>
<path d="M54.625 4.76562H59.2344L58.3125 6.60938L59.2344 8.45312H54.625V4.76562Z" fill="#34A853"/>
<path d="M31.5782 13.9844C31.6639 13.8988 31.7318 13.7971 31.7781 13.6853C31.8244 13.5734 31.8483 13.4536 31.8483 13.3325C31.8483 13.2114 31.8244 13.0915 31.7781 12.9797C31.7318 12.8678 31.6639 12.7662 31.5783 12.6806L29.4646 10.5669C29.2916 10.394 29.0572 10.2969 28.8126 10.2969C28.5681 10.2969 28.3336 10.394 28.1607 10.5669L26.047 12.6806C25.9614 12.7662 25.8935 12.8678 25.8472 12.9797C25.8008 13.0915 25.777 13.2114 25.777 13.3325C25.777 13.4536 25.8009 13.5734 25.8472 13.6853C25.8935 13.7971 25.9614 13.8988 26.047 13.9844C26.2199 14.1572 26.4544 14.2544 26.6989 14.2544C26.9434 14.2543 27.1779 14.1572 27.3508 13.9843L27.8908 13.4443V16.75H29.7345V13.4443L30.2745 13.9843C30.4474 14.1572 30.6819 14.2543 30.9264 14.2544C31.1709 14.2544 31.4054 14.1572 31.5782 13.9844L31.5782 13.9844Z" fill="#F78E00"/>
<path d="M29.7344 11.2188C29.2454 11.2188 28.7764 11.0245 28.4306 10.6787C28.0849 10.333 27.8906 9.86399 27.8906 9.375V8.45312L28.8125 7.53125H31.5781V9.375C31.5781 9.86399 31.3839 10.333 31.0381 10.6787C30.6923 11.0245 30.2234 11.2188 29.7344 11.2188Z" fill="#FFCEB6"/>
<path d="M31.5781 7.53125L32.1181 6.99123C32.3626 6.74673 32.5 6.41512 32.5 6.06935C32.5 5.89815 32.4663 5.72861 32.4008 5.57044C32.3352 5.41226 32.2392 5.26854 32.1181 5.14748C31.9971 5.02642 31.8534 4.93038 31.6952 4.86487C31.537 4.79935 31.3675 4.76562 31.1963 4.76563H29.7344C29.2454 4.76563 28.7764 4.95988 28.4306 5.30565C28.0849 5.65142 27.8906 6.12038 27.8906 6.60938V8.45312L28.8125 7.53125H31.5781Z" fill="#C47220"/>
</svg>
